<svg xmlns="http://www.w3.org/2000/svg" viewBox="0 0 512 512">
  <rect width="512" height="512" rx="88" fill="#111827"/>
  <path d="M180 126h-38c-22 0-40 18-40 40v50c0 22-12 34-34 40 22 6 34 18 34 40v50c0 22 18 40 40 40h38" fill="none" stroke="#60a5fa" stroke-width="34" stroke-linecap="round"/>
  <path d="M332 126h38c22 0 40 18 40 40v50c0 22 12 34 34 40-22 6-34 18-34 40v50c0 22-18 40-40 40h-38" fill="none" stroke="#60a5fa" stroke-width="34" stroke-linecap="round"/>
  <path d="M230 190h52v52h-52zm0 80h52v52h-52z" fill="#f8fafc"/>
</svg>
